{
    "asset": {
        "version": "2.0",
        "generator": "Open Asset Import Library (assimp v5.4.0)"
    },
    "extensionsUsed": [
        "KHR_materials_volume",
        "FB_ngon_encoding"
    ],
    "accessors": [
        {
            "bufferView": 0,
            "byteOffset": 0,
            "componentType": 5126,
            "count": 34432,
            "type": "VEC3",
            "max": [
                0.13973848521709442,
                0.27833086252212524,
                0.2869936525821686
            ],
            "min": [
                -0.13334177434444427,
                -0.28593966364860535,
                -0.2768305540084839
            ]
        },
        {
            "bufferView": 1,
            "byteOffset": 0,
            "componentType": 5126,
            "count": 34432,
            "type": "VEC3",
            "max": [
                0.9999608993530273,
                0.9999885559082031,
                0.9999986290931702
            ],
            "min": [
                -0.9999960064888,
                -0.9999896883964539,
                -0.9999005794525146
            ]
        },
        {
            "bufferView": 2,
            "byteOffset": 0,
            "componentType": 5126,
            "count": 34432,
            "type": "VEC2",
            "max": [
                0.9923684597015381,
                0.9969067573547363
            ],
            "min": [
                0.003093198873102665,
                0.0030933022499084473
            ]
        },
        {
            "bufferView": 3,
            "byteOffset": 0,
            "componentType": 5125,
            "count": 149322,
            "type": "SCALAR",
            "max": [
                34431
            ],
            "min": [
                0
            ]
        }
    ],
    "buffers": [
        {
            "byteLength": 1699112,
            "uri": "Person_0.bin"
        }
    ],
    "bufferViews": [
        {
            "buffer": 0,
            "byteOffset": 0,
            "byteLength": 413184,
            "target": 34962
        },
        {
            "buffer": 0,
            "byteOffset": 413184,
            "byteLength": 413184,
            "target": 34962
        },
        {
            "buffer": 0,
            "byteOffset": 826368,
            "byteLength": 275456,
            "target": 34962
        },
        {
            "buffer": 0,
            "byteOffset": 1101824,
            "byteLength": 597288,
            "target": 34963
        }
    ],
    "images": [
        {
            "uri": "textures/image_1.png"
        },
        {
            "uri": "textures/image_0.png"
        }
    ],
    "materials": [
        {
            "name": "Mat_1",
            "pbrMetallicRoughness": {
                "baseColorTexture": {
                    "index": 0
                },
                "metallicRoughnessTexture": {
                    "index": 1
                },
                "metallicFactor": 0.800000011920929
            },
            "doubleSided": true
        }
    ],
    "meshes": [
        {
            "name": "meshes[0]",
            "primitives": [
                {
                    "mode": 4,
                    "material": 0,
                    "indices": 3,
                    "attributes": {
                        "POSITION": 0,
                        "NORMAL": 1,
                        "TEXCOORD_0": 2
                    }
                }
            ]
        }
    ],
    "nodes": [
        {
            "name": "Person",
            "children": [
                1
            ]
        },
        {
            "name": "world",
            "children": [
                2
            ],
            "extras": {
                "name": "world"
            }
        },
        {
            "name": "geometry_0",
            "mesh": 0,
            "extras": {
                "prompt": "cute person, zookeeper, cartoon person, 3d asset",
                "name": "geometry_0"
            }
        }
    ],
    "samplers": [
        {
            "magFilter": 9729,
            "minFilter": 9987
        },
        {
            "magFilter": 9729,
            "minFilter": 9987
        }
    ],
    "scenes": [
        {
            "nodes": [
                0
            ]
        }
    ],
    "textures": [
        {
            "source": 0,
            "sampler": 0
        },
        {
            "source": 1,
            "sampler": 1
        }
    ],
    "scene": 0
}